# xmcd
#
# Track frame offsets: 
#        150
#        18460
#        36782
#        45347
#        63450
#        79250
#        95850
#        112612
#        133275
#        150600
#        169980
#        190838
#
# Disc length: 2804 seconds
#
# Revision: 1
# Processed by: cddbd v1.5.2PL0 Copyright (c) Steve Scherf et al.
# Submitted via: ExactAudioCopyFreeDBPlugin 1.0
#
DISCID=9b0af20c
DTITLE=C AllStar - C AllStar 生於斯
DYEAR=2015
DGENRE=Pop
TTITLE0=生於斯
TTITLE1=我們的電車上
TTITLE2=請勿靠近車門
TTITLE3=上車咒
TTITLE4=城惶城恐
TTITLE5=門常關
TTITLE6=少年宮
TTITLE7=紅館夢
TTITLE8=夜幕天星
TTITLE9=逾越生死
TTITLE10=后會無期（Featuring 梁詠琪）
TTITLE11=日暮途遠
EXTD=寰亞音樂 2015
EXTT0=
EXTT1=
EXTT2=
EXTT3=
EXTT4=
EXTT5=
EXTT6=
EXTT7=
EXTT8=
EXTT9=
EXTT10=
EXTT11=
PLAYORDER=
